<?xml version="1.0" standalone="no"?>
<!DOCTYPE svg PUBLIC "-//W3C//DTD SVG 20010904//EN"
 "http://www.w3.org/TR/2001/REC-SVG-20010904/DTD/svg10.dtd">
<svg version="1.0" xmlns="http://www.w3.org/2000/svg"
 width="955.000000pt" height="507.000000pt" viewBox="0 0 955.000000 507.000000"
 preserveAspectRatio="xMidYMid meet">
<metadata>
Created by potrace 1.15, written by Peter Selinger 2001-2017
</metadata>
<g transform="translate(0.000000,507.000000) scale(0.100000,-0.100000)"
fill="#000000" stroke="none">
<path d="M8070 5029 c-166 -36 -215 -54 -280 -102 -68 -51 -445 -426 -515
-512 -22 -27 -57 -65 -79 -85 -21 -19 -86 -89 -144 -155 -58 -66 -115 -129
-126 -141 -43 -42 -182 -191 -220 -234 -35 -40 -112 -123 -341 -368 -38 -41
-117 -123 -175 -182 -58 -59 -143 -148 -190 -197 -380 -403 -637 -660 -790
-795 -122 -107 -223 -188 -227 -184 -7 7 140 274 207 376 5 8 29 53 53 100 24
47 49 94 55 105 34 58 60 168 61 252 1 43 -3 55 -21 67 -37 26 -67 19 -117
-26 -26 -24 -69 -63 -96 -87 -90 -79 -434 -407 -625 -596 -124 -122 -387 -345
-408 -345 -10 0 -10 4 0 23 7 12 15 24 18 27 10 10 134 258 162 325 97 230
102 365 15 365 -35 0 -58 -20 -89 -75 -9 -16 -28 -52 -44 -80 -108 -197 -120
-239 -89 -299 8 -15 15 -37 15 -48 0 -23 -160 -334 -206 -403 -32 -46 -4 -105
50 -105 28 0 48 13 117 76 46 42 104 92 129 113 146 118 315 273 545 500 438
431 510 497 513 473 2 -11 -6 -39 -17 -61 -12 -22 -21 -45 -21 -51 0 -12 -54
-135 -70 -160 -6 -8 -16 -26 -22 -40 -7 -14 -19 -36 -28 -50 -39 -59 -211
-391 -240 -460 -16 -40 -16 -50 -5 -77 15 -34 43 -48 77 -37 12 3 62 39 112
79 80 63 141 119 365 329 82 77 385 382 432 435 23 25 80 87 128 137 47 50
127 135 176 189 50 55 122 133 161 175 102 108 188 201 215 232 13 14 56 61
94 104 39 43 95 104 125 135 64 66 120 126 245 264 50 54 122 133 160 174 39
42 77 84 85 94 8 10 26 28 39 40 13 12 44 44 70 71 25 28 129 133 231 235 102
102 194 204 205 225 11 22 33 47 48 55 16 9 48 28 70 42 42 27 76 37 217 64
59 11 96 12 175 4 55 -6 114 -15 130 -20 42 -15 90 -28 158 -43 l57 -14 7 26
c6 27 -19 56 -79 87 -58 31 -365 54 -458 34z"/>
<path d="M1678 3234 c-16 -8 -28 -20 -28 -25 0 -6 -32 -77 -71 -158 -75 -153
-116 -215 -211 -319 -32 -34 -58 -67 -58 -72 0 -6 -7 -10 -15 -10 -8 0 -15 -4
-15 -10 0 -12 -148 -179 -214 -240 -26 -25 -64 -62 -84 -84 -20 -21 -48 -42
-61 -47 -13 -5 -21 -12 -18 -15 3 -3 -21 -29 -55 -57 -85 -74 -372 -291 -405
-307 -16 -8 -40 -23 -56 -33 -57 -39 -263 -148 -298 -158 -46 -14 -64 -47 -43
-78 9 -12 26 -21 40 -21 55 0 360 178 540 315 142 108 287 233 364 312 8 8 31
30 50 48 112 107 210 208 210 218 0 7 14 25 30 40 17 16 30 34 30 40 0 7 9 23
20 37 15 19 22 22 31 13 9 -9 7 -24 -10 -65 -31 -75 -54 -118 -63 -118 -5 0
-8 -12 -8 -26 0 -14 -11 -44 -24 -67 -14 -23 -39 -76 -56 -117 -39 -92 -71
-136 -105 -144 -59 -15 -585 -285 -599 -308 -12 -20 16 -58 43 -58 9 0 120 51
246 114 127 63 244 117 260 120 17 3 24 3 18 0 -7 -3 -13 -16 -13 -28 0 -13
-11 -40 -25 -60 -14 -20 -25 -45 -25 -56 0 -10 -7 -25 -15 -34 -8 -8 -15 -20
-15 -26 0 -20 -98 -214 -165 -325 -73 -121 -80 -158 -34 -163 21 -2 37 7 71
42 46 46 118 180 118 219 0 30 46 126 75 157 13 14 30 45 38 70 8 25 31 70 51
100 20 30 36 58 36 62 0 4 11 31 24 60 31 68 87 123 116 115 12 -3 42 3 67 14
24 10 49 19 54 19 17 0 9 -43 -26 -130 -60 -150 -64 -218 -15 -270 50 -53 100
-37 224 73 36 32 66 64 66 70 0 15 55 77 69 77 5 0 45 36 89 80 72 73 105 93
82 51 -44 -79 -127 -279 -135 -323 -6 -31 -3 -41 18 -62 18 -18 32 -24 52 -20
52 9 191 114 350 264 39 36 96 88 128 114 l58 49 34 -41 c49 -56 89 -68 162
-47 61 18 126 51 178 91 41 31 45 30 80 -6 34 -35 71 -39 162 -15 31 8 79 15
105 15 40 0 52 4 71 27 46 56 143 155 161 165 17 9 18 7 11 -28 -11 -61 -149
-331 -207 -405 -15 -20 -28 -39 -28 -43 0 -3 -33 -53 -72 -112 -40 -59 -77
-114 -83 -123 -5 -9 -49 -75 -96 -146 -47 -72 -92 -141 -99 -155 -7 -14 -16
-27 -19 -30 -4 -3 -12 -16 -19 -30 -14 -29 -26 -49 -62 -105 -15 -22 -44 -76
-65 -120 -21 -44 -51 -98 -66 -120 -14 -22 -35 -64 -45 -93 -17 -46 -17 -54
-4 -62 8 -5 18 -10 22 -10 14 0 67 65 93 114 61 119 104 192 187 313 15 23 28
44 28 48 0 3 14 26 30 50 17 24 30 47 30 51 0 4 17 30 39 58 21 28 49 67 62
87 30 45 118 170 158 224 17 22 38 54 47 70 9 17 31 48 49 70 17 22 48 67 69
100 21 33 47 72 57 87 70 100 149 320 149 413 0 55 -32 95 -77 95 -41 0 -156
-84 -288 -212 -46 -44 -69 -59 -97 -62 -21 -3 -54 -8 -73 -12 -30 -5 -35 -4
-35 13 0 19 34 74 77 126 57 70 -8 159 -87 117 -10 -5 -28 -30 -40 -54 -50
-104 -298 -294 -355 -272 -14 5 -14 10 -1 41 8 19 31 56 51 81 25 34 33 53 29
68 -11 36 -36 56 -70 56 -27 0 -39 -8 -66 -42 -50 -62 -152 -161 -253 -243
-49 -40 -128 -105 -174 -144 -47 -39 -86 -69 -88 -67 -3 2 19 53 48 113 55
114 102 263 92 291 -11 32 -36 52 -66 52 -23 0 -44 -15 -101 -71 -158 -156
-418 -389 -428 -383 -3 2 9 39 27 82 36 83 61 207 50 244 -11 34 -35 58 -60
58 -13 0 -66 -18 -120 -41 -54 -22 -100 -38 -103 -35 -2 3 22 61 55 128 33 68
88 184 122 258 69 148 161 338 189 385 9 17 40 70 69 118 29 49 53 99 53 112
0 23 -23 55 -40 55 -5 0 -14 2 -22 5 -7 2 -25 -2 -40 -11z"/>
<path d="M2882 3044 c-29 -20 -28 -34 9 -89 32 -48 62 -70 84 -62 7 3 48 -12
91 -32 44 -21 90 -42 104 -46 14 -4 30 -11 35 -15 21 -16 120 -40 167 -40 52
0 71 17 48 45 -13 16 -96 56 -156 75 -52 16 -227 105 -289 147 -57 38 -62 39
-93 17z"/>
<path d="M6513 2815 c-27 -19 -29 -47 -6 -85 24 -41 56 -56 88 -42 39 18 90
14 134 -9 55 -28 83 -14 79 39 -3 33 -8 40 -53 63 -28 14 -70 28 -95 32 -25 3
-63 9 -85 12 -29 4 -46 2 -62 -10z"/>
<path d="M7368 2764 c-16 -8 -28 -21 -28 -28 0 -7 -30 -54 -67 -105 -38 -51
-75 -103 -83 -115 -15 -23 -79 -111 -142 -195 -57 -76 -184 -225 -223 -261
l-38 -35 6 39 c5 33 2 42 -23 67 -25 26 -32 28 -56 19 -15 -6 -43 -25 -61 -43
-18 -18 -37 -36 -43 -42 -40 -38 -120 -138 -120 -149 0 -8 -10 -20 -23 -28
-22 -15 -57 -96 -57 -134 0 -29 36 -64 67 -64 29 0 122 45 199 96 29 19 87 71
129 115 58 61 80 78 86 68 5 -8 9 -19 9 -25 0 -6 11 -21 25 -34 18 -17 36 -23
70 -23 66 0 199 69 249 129 20 24 41 42 46 39 9 -5 -8 -65 -29 -101 -6 -11
-17 -47 -25 -82 -26 -122 24 -193 164 -233 51 -14 277 -14 325 1 17 5 80 14
140 20 94 10 219 34 355 70 19 5 64 12 100 15 105 9 216 25 355 50 72 13 186
33 255 45 69 12 151 28 182 36 74 18 142 18 198 -2 61 -21 70 -31 70 -75 0
-65 -62 -180 -191 -354 -62 -83 -99 -145 -99 -165 0 -11 3 -20 6 -20 4 0 37
20 73 44 71 46 154 130 205 207 17 25 50 71 73 101 l42 55 -2 137 c-2 134 -3
138 -27 156 -48 36 -158 41 -323 15 -135 -21 -365 -62 -417 -74 -25 -6 -108
-20 -185 -31 -77 -12 -225 -38 -328 -58 -140 -27 -190 -33 -196 -24 -5 8 -23
4 -67 -17 -68 -32 -192 -51 -349 -52 -139 -2 -219 15 -250 53 -30 36 -30 38
-5 88 11 22 20 51 20 65 0 14 9 33 20 42 11 10 20 21 20 26 0 19 103 213 136
255 40 53 41 62 11 98 -20 23 -28 26 -59 20 -28 -5 -45 -19 -79 -62 -23 -30
-50 -61 -59 -67 -9 -7 -44 -36 -78 -66 -33 -29 -71 -60 -84 -70 -14 -9 -53
-35 -88 -58 -65 -44 -110 -55 -110 -28 0 35 102 201 184 300 23 28 54 69 70
93 16 24 34 46 40 50 6 4 18 17 26 28 8 12 48 63 88 114 39 50 72 100 72 110
0 23 -29 57 -55 64 -11 3 -32 -2 -47 -10z"/>
<path d="M5664 2277 c-31 -17 -206 -210 -262 -287 -39 -55 -47 -73 -50 -121
-4 -48 -1 -60 17 -78 37 -37 85 -24 113 29 28 52 63 100 75 100 7 0 19 -26 28
-57 48 -177 60 -200 126 -233 45 -24 104 -25 179 -6 30 8 56 13 58 11 4 -4
-228 -334 -276 -395 -16 -19 -43 -57 -62 -85 -19 -27 -52 -73 -75 -102 -73
-93 -155 -210 -155 -221 0 -6 -4 -12 -9 -14 -16 -6 -239 -347 -271 -415 -65
-136 -73 -185 -45 -277 18 -60 37 -82 82 -97 30 -10 41 -8 78 11 122 62 245
215 191 236 -8 3 -59 -17 -115 -45 -55 -28 -110 -51 -122 -51 -21 0 -22 3 -15
62 8 76 35 137 131 292 42 66 81 130 88 140 34 56 396 544 422 569 8 9 15 20
15 26 0 6 19 32 43 60 59 69 132 160 216 271 39 52 113 138 164 190 153 159
190 206 181 234 -11 36 -36 56 -69 56 -37 0 -51 -13 -135 -121 -32 -42 -82
-95 -112 -118 -109 -85 -289 -137 -341 -98 -10 6 -28 52 -42 103 -13 50 -38
120 -54 155 -37 75 -37 79 -8 107 18 17 31 21 55 16 44 -9 62 9 62 62 0 69
-58 118 -106 91z"/>
</g>
</svg>
