<?xml version="1.0"?>
<svg xmlns="http://www.w3.org/2000/svg" viewBox="0 0 512 512" width="512" height="512"><g id="outline"><path d="M484.116,353.14l-42.024-25.214a73.584,73.584,0,0,0-82.322,4.246l-26.508,19.881A72.208,72.208,0,0,0,280,378.3V305.826q1.041-2.612,1.9-5.3a82.242,82.242,0,0,0,31.781,22.311,7.994,7.994,0,0,0,10.37-4.517,82.5,82.5,0,0,0,5.663-34.048,82.463,82.463,0,0,0,33.763,7.209,8,8,0,0,0,8-8,82.435,82.435,0,0,0-9.118-37.757c1.749.111,3.5.187,5.248.187a82.245,82.245,0,0,0,33-6.864,8,8,0,0,0,4.146-10.525,82.407,82.407,0,0,0-20.072-28.088,82.461,82.461,0,0,0,28.972-18.776,8,8,0,0,0,0-11.314A82.439,82.439,0,0,0,380.526,150.1a82.309,82.309,0,0,0,22.31-31.781,8,8,0,0,0-4.516-10.371,82.5,82.5,0,0,0-34.049-5.662A82.463,82.463,0,0,0,371.48,68.52a8,8,0,0,0-8-8,82.431,82.431,0,0,0-37.739,9.108,82.465,82.465,0,0,0-6.694-38.236,8,8,0,0,0-10.523-4.15,82.465,82.465,0,0,0-28.088,20.082,82.467,82.467,0,0,0-18.779-28.981,8,8,0,0,0-11.314,0A82.436,82.436,0,0,0,230.1,51.475a82.242,82.242,0,0,0-31.781-22.311,8,8,0,0,0-10.37,4.517,82.5,82.5,0,0,0-5.663,34.048A82.463,82.463,0,0,0,148.52,60.52a8,8,0,0,0-8,8,82.435,82.435,0,0,0,9.118,37.757c-1.749-.111-3.5-.187-5.248-.187a82.245,82.245,0,0,0-33,6.864,8,8,0,0,0-4.146,10.525,82.407,82.407,0,0,0,20.072,28.088,82.461,82.461,0,0,0-28.972,18.776,8,8,0,0,0,0,11.314A82.439,82.439,0,0,0,131.474,201.9a82.309,82.309,0,0,0-22.31,31.781,8,8,0,0,0,4.516,10.371,82.586,82.586,0,0,0,30.277,5.762c1.255,0,2.512-.034,3.769-.092a82.459,82.459,0,0,0-7.206,33.755,8,8,0,0,0,8,8,82.429,82.429,0,0,0,37.757-9.118c-.111,1.749-.187,3.5-.187,5.248a82.251,82.251,0,0,0,6.864,33,7.993,7.993,0,0,0,10.525,4.147,82.412,82.412,0,0,0,28.088-20.071c.163.428.317.859.488,1.285a7.939,7.939,0,0,0-.055.9V404.9a72.206,72.206,0,0,0-53.262-26.243L152.23,358.772a73.587,73.587,0,0,0-82.322-4.246L27.884,379.74a8,8,0,0,0,0,13.721l42.024,25.214a73.584,73.584,0,0,0,82.322-4.246h0l26.352-19.764a56.382,56.382,0,0,1,48.151,31.291l5.141,10.281c.037.075.087.139.126.213V488a8,8,0,0,0,8,8h32a8,8,0,0,0,8-8V409.889l5.267-10.534a56.382,56.382,0,0,1,48.151-31.291l26.352,19.764h0a73.584,73.584,0,0,0,82.322,4.246l42.024-25.214a8,8,0,0,0,0-13.72ZM142.63,371.573,152,378.6H107.314l-16.14-16.14A57.609,57.609,0,0,1,142.63,371.573Zm-66.87-1.9,8.926,8.926h-23.8ZM60.883,394.6h54.173l-9.3,18.594a57.854,57.854,0,0,1-27.619-8.241Zm64.024,16.074,8.037-16.074H152l-9.37,7.027A58.076,58.076,0,0,1,124.907,410.675ZM243.439,288.384a82.534,82.534,0,0,0,10.444-24.872l3.4-14.275,3.886,14.138a82.285,82.285,0,0,0,8.416,19.929l-.988,4.939A66.51,66.51,0,0,1,256,315.916,66.5,66.5,0,0,1,243.439,288.384Zm-24.122-96.435a40.044,40.044,0,0,1,36.673-55.97c.225,0,.449.011.674.015l.071,0a40.213,40.213,0,0,1,25.85,10.1c.086.08.169.161.259.238a40.005,40.005,0,1,1-63.527,45.618Zm92.472,112.359a66.394,66.394,0,0,1-22.581-20.357l-3.06-4.4a66.447,66.447,0,0,1-9.554-20.413l-7.863-28.609c.68-.161,1.359-.329,2.035-.515l16.177,37.213a8,8,0,1,0,14.674-6.378l-16.175-37.21c.6-.368,1.18-.752,1.761-1.14l15.559,25.271a66.414,66.414,0,0,1,8.408,20.895l1.131,5.243A66.5,66.5,0,0,1,311.789,304.308Zm14.8-39.959a82.25,82.25,0,0,0-10.2-24.973L308.7,226.9l12.744,7.247a82.339,82.339,0,0,0,20.038,8.132l2.792,4.188a66.515,66.515,0,0,1,10.664,28.473A66.5,66.5,0,0,1,326.585,264.349ZM367.61,229.91a66.678,66.678,0,0,1-11.793-1.053l-5.281-.951a66.488,66.488,0,0,1-21.182-7.67l-25.8-14.669c.37-.6.736-1.2,1.084-1.81l37.745,14.876a8,8,0,1,0,5.866-14.885l-37.748-14.876c.163-.684.3-1.369.441-2.055l28.863,6.867a66.564,66.564,0,0,1,20.723,8.828l4.514,2.913a66.422,66.422,0,0,1,21.133,21.858A66.427,66.427,0,0,1,367.61,229.91Zm.773-41.349a82.558,82.558,0,0,0-24.871-10.444l-14.275-3.4,14.138-3.886a82.285,82.285,0,0,0,19.929-8.416l4.939.988A66.517,66.517,0,0,1,395.916,176,66.515,66.515,0,0,1,368.383,188.561Zm15.924-68.351a66.407,66.407,0,0,1-20.354,22.582l-4.4,3.06a66.424,66.424,0,0,1-20.413,9.554l-28.606,7.863c-.161-.681-.326-1.361-.512-2.038l37.207-16.174a8,8,0,1,0-6.378-14.674l-37.21,16.175c-.367-.6-.752-1.18-1.14-1.761l25.27-15.56a66.464,66.464,0,0,1,20.895-8.407l5.245-1.131A66.462,66.462,0,0,1,384.307,120.21ZM354.936,77.064a66.509,66.509,0,0,1-10.587,28.351,82.341,82.341,0,0,0-24.974,10.2L306.9,123.3l7.247-12.744a82.293,82.293,0,0,0,8.133-20.038l4.189-2.792A66.488,66.488,0,0,1,354.936,77.064ZM298.314,52.253a66.355,66.355,0,0,1,8.967-6.427,66.49,66.49,0,0,1,1.575,30.357l-.95,5.281a66.51,66.51,0,0,1-7.67,21.182l-14.669,25.8c-.6-.369-1.2-.735-1.809-1.083l14.875-37.746a8,8,0,1,0-14.886-5.867L268.871,121.5c-.683-.163-1.369-.3-2.055-.44l6.867-28.864a66.576,66.576,0,0,1,8.829-20.723l2.911-4.511A66.448,66.448,0,0,1,298.314,52.253ZM256,36.084a66.509,66.509,0,0,1,12.561,27.533,82.518,82.518,0,0,0-10.444,24.871l-3.4,14.275-3.886-14.138A82.285,82.285,0,0,0,242.419,68.7l.988-4.939A66.51,66.51,0,0,1,256,36.084ZM200.211,47.692a66.394,66.394,0,0,1,22.581,20.357l3.06,4.4a66.447,66.447,0,0,1,9.554,20.413l7.862,28.607c-.68.16-1.36.325-2.037.512L225.057,84.771a8,8,0,0,0-14.674,6.378l16.175,37.21c-.6.368-1.18.752-1.761,1.14l-15.559-25.271a66.414,66.414,0,0,1-8.408-20.895L199.7,78.09A66.5,66.5,0,0,1,200.211,47.692Zm-14.8,39.959a82.271,82.271,0,0,0,10.2,24.973L203.3,125.1l-12.744-7.247a82.339,82.339,0,0,0-20.038-8.132l-2.792-4.188a66.515,66.515,0,0,1-10.664-28.473A66.5,66.5,0,0,1,185.415,87.651ZM144.39,122.09a66.678,66.678,0,0,1,11.793,1.053l5.281.951a66.488,66.488,0,0,1,21.182,7.67l25.8,14.669c-.37.6-.736,1.2-1.084,1.81l-37.745-14.876a8,8,0,1,0-5.866,14.885L201.5,163.128c-.163.684-.3,1.369-.441,2.055l-28.863-6.867a66.564,66.564,0,0,1-20.723-8.828l-4.514-2.913a66.422,66.422,0,0,1-21.133-21.858A66.427,66.427,0,0,1,144.39,122.09Zm-.773,41.349a82.558,82.558,0,0,0,24.871,10.444l14.275,3.4-14.138,3.886a82.285,82.285,0,0,0-19.929,8.416l-4.939-.988A66.517,66.517,0,0,1,116.084,176,66.509,66.509,0,0,1,143.617,163.439ZM127.693,231.79a66.407,66.407,0,0,1,20.354-22.582l4.4-3.06a66.424,66.424,0,0,1,20.413-9.554l28.606-7.863c.161.681.326,1.361.512,2.038l-37.207,16.174a8,8,0,1,0,6.378,14.674l37.21-16.175c.367.6.752,1.18,1.14,1.761l-25.27,15.56a66.464,66.464,0,0,1-20.9,8.407l-5.245,1.131A66.516,66.516,0,0,1,127.693,231.79Zm29.371,43.146a66.5,66.5,0,0,1,10.588-28.351,82.336,82.336,0,0,0,24.973-10.2l12.48-7.685-7.247,12.744a82.293,82.293,0,0,0-8.133,20.038l-4.189,2.792A66.488,66.488,0,0,1,157.064,274.936Zm47.653,31.243a66.771,66.771,0,0,1-1.573-30.362l.95-5.281a66.51,66.51,0,0,1,7.67-21.182l14.669-25.8c.6.369,1.2.735,1.809,1.083l-14.875,37.746a8,8,0,1,0,14.886,5.867l14.874-37.744c.684.163,1.369.305,2.056.442l-6.866,28.857a66.576,66.576,0,0,1-8.829,20.723l-2.913,4.515A66.42,66.42,0,0,1,204.717,306.179ZM248,480V331.209q1.146,1.245,2.343,2.448a8,8,0,0,0,11.314,0q1.2-1.2,2.343-2.448V480ZM451.117,352h-23.8l8.926-8.926Zm-30.292-16.139L404.686,352H360l9.37-7.027A57.608,57.608,0,0,1,420.825,335.861ZM360,368h19.056l8.037,16.074a58.076,58.076,0,0,1-17.723-9.047Zm73.86,10.354a57.853,57.853,0,0,1-27.619,8.24L396.944,368h54.173Z"/><path d="M263.443,178.932a8,8,0,1,0-10.375,4.511A8,8,0,0,0,263.443,178.932Z"/><path d="M250.136,190.886a8,8,0,1,0,4.511,10.376A8,8,0,0,0,250.136,190.886Z"/><path d="M261.864,161.114a8,8,0,1,0-4.511-10.376A8,8,0,0,0,261.864,161.114Z"/><path d="M281.262,177.353a7,7,0,1,0-3.947-9.078A7,7,0,0,0,281.262,177.353Z"/><circle cx="272.832" cy="198.753" r="7" transform="translate(-26.883 354.029) rotate(-63.46)"/><path d="M246.611,156.179a7,7,0,1,0-9.078,3.948A7,7,0,0,0,246.611,156.179Z"/><path d="M231.668,175.013a7,7,0,1,0,3.948,9.079A7,7,0,0,0,231.668,175.013Z"/></g></svg>
